#!OML:ASF E:\VariousWalksJay\Project 1\Capture day 1\Session 1\Actor2.ASF
:FULLY-SPECIFIED
:DEGREES
1204
root -8.68631 12.5075 -3.04796 123.854 75.1216 -279.996
lowerback 42.9889 -1.32791 3.45238
upperback 16.9742 1.88989 -5.9076
thorax -1.16194 2.44031 -8.801
lowerneck 1.49358 0.939205 4.16604
upperneck -13.8861 0.340974 -12.7132
head -4.30756 0.882837 -4.67192
rclavicle -3.81667e-014 -2.18663e-014
rhumerus 55.7673 2.90477 -28.8072
rradius 42.9915
rwrist 9.75339
rhand -44.7314 1.43081
rfingers 7.12502
rthumb -17.5252 -27.7993
lclavicle -3.81667e-014 -2.18663e-014
lhumerus 58.6046 16.2347 51.4419
lradius 67.3558
lwrist 10.727
lhand 0.869028 105.085
lfingers 7.12502
lthumb 26.4225 -76.9066
rfemur -118.735 -29.5141 33.8202
rtibia 107.804
rfoot -32.7377 -12.4563
rtoes -19.8452
lfemur -76.5629 33.5755 -9.84602
ltibia 46.2944
lfoot -10.1631 17.7527
ltoes -19.5292
1205
root -8.72812 12.4207 -3.40101 122.486 76.0729 -282.065
lowerback 42.6443 -1.23711 3.52142
upperback 17.0246 1.9824 -5.55399
thorax -0.996232 2.43949 -8.47162
lowerneck 1.50883 0.941716 3.92481
upperneck -14.9239 0.256715 -12.8038
head -4.63263 0.917955 -4.68451
rclavicle -3.49861e-014 -3.57812e-015
rhumerus 56.9304 3.2688 -28.3966
rradius 40.1745
rwrist 8.05723
rhand -44.0023 0.740801
rfingers 7.12502
rthumb -16.8234 -28.5504
lclavicle -3.49861e-014 -3.57812e-015
lhumerus 59.8544 17.0898 56.9138
lradius 67.3564
lwrist 10.0009
lhand 1.5637 105.711
lfingers 7.12502
lthumb 27.0873 -77.6338
rfemur -120.301 -29.489 33.9744
rtibia 107.582
rfoot -31.6114 -12.751
rtoes -19.5351
lfemur -75.5975 33.5625 -7.31346
ltibia 43.8424
lfoot -10.5879 19.4007
ltoes -19.4685
1206
root -8.76754 12.3321 -3.7545 121.377 77.256 -283.874
lowerback 42.3028 -1.18975 3.75465
upperback 17.0453 2.07336 -5.24632
thorax -0.86143 2.44672 -8.28008
lowerneck 1.53761 0.95491 3.97113
upperneck -15.9314 0.208394 -12.827
head -4.94815 0.947141 -4.72736
rclavicle -9.54166e-015 -2.62396e-014
rhumerus 57.9867 3.64776 -28.1942
rradius 37.1413
rwrist 6.87676
rhand -42.7338 0.359072
rfingers 7.12502
rthumb -15.602 -29.0317
lclavicle -9.54166e-015 -2.62396e-014
lhumerus 61.136 17.6058 61.9571
lradius 67.7211
lwrist 10.2332
lhand 2.41402 106.378
lfingers 7.12502
lthumb 27.9005 -78.4307
rfemur -121.449 -29.4376 34.2076
rtibia 107.158
rfoot -30.9709 -12.744
rtoes -18.6698
lfemur -75.0444 33.7393 -5.03163
ltibia 42.0289
lfoot -11.0261 21.0888
ltoes -19.1607
1207
root -8.80905 12.2434 -4.10964 119.547 78.1592 -286.442
lowerback 41.8673 -1.13705 3.81421
upperback 17.0875 2.1027 -5.10753
thorax -0.688196 2.43285 -8.15852
lowerneck 1.6103 0.92946 4.17031
upperneck -16.9869 0.133699 -12.6849
head -5.29108 0.942425 -4.74578
rclavicle 9.54166e-015 1.20861e-013
rhumerus 58.6944 4.40778 -27.2625
rradius 34.2786
rwrist 4.85072
rhand -53.0133 20.2264
rfingers 7.12502
rthumb -25.4785 -8.0904
lclavicle 9.54166e-015 1.20861e-013
lhumerus 62.2448 17.7386 66.1077
lradius 68.5586
lwrist 11.4496
lhand 3.16122 106.857
lfingers 7.12502
lthumb 28.6146 -79.0277
rfemur -122.32 -29.5627 34.0671
rtibia 106.518
rfoot -30.6918 -12.45
rtoes -17.2957
lfemur -75.0626 34.0199 -3.7689
ltibia 40.9159
lfoot -11.3998 22.5075
ltoes -18.4972
1208
root -8.84441 12.1569 -4.46415 117.646 78.9925 -288.839
lowerback 41.6924 -1.07761 3.89393
upperback 17.1374 2.17214 -4.96467
thorax -0.571459 2.44645 -8.06253
lowerneck 1.4482 0.825808 4.77191
upperneck -17.7956 -0.0148535 -12.6051
head -5.52261 0.856854 -4.84146
rclavicle -6.99722e-014 2.22639e-014
rhumerus 59.1292 4.01233 -28.3999
rradius 32.1858
rwrist 8.89016
rhand -55.1953 26.8117
rfingers 7.12502
rthumb -27.567 -1.18954
lclavicle -6.99722e-014 2.22639e-014
lhumerus 63.5843 17.3265 70.5513
lradius 69.3551
lwrist 12.2188
lhand 3.92393 107.889
lfingers 7.12502
lthumb 29.3431 -80.185
rfemur -122.5 -29.9188 33.6303
rtibia 105.724
rfoot -30.2287 -12.5233
rtoes -19.622
lfemur -75.3442 34.2897 -3.11401
ltibia 40.4012
lfoot -11.4152 23.3005
ltoes -18.0818
1209
root -8.87727 12.0683 -4.81641 114.749 79.6951 -292.099
lowerback 41.696 -0.888996 3.71772
upperback 17.1112 2.30042 -4.87397
thorax -0.587486 2.47183 -7.91655
lowerneck 1.8316 0.71976 5.40259
upperneck -18.8958 -0.132323 -12.2238
head -5.94383 0.776375 -4.86135
rclavicle 1.59028e-014 5.725e-014
rhumerus 58.6934 2.04462 -32.8627
rradius 31.436
rwrist 17.2584
rhand -59.4195 6.48003
rfingers 7.12502
rthumb -31.5991 -20.8055
lclavicle 1.59028e-014 5.725e-014
lhumerus 64.3969 16.4439 73.7814
lradius 70.2542
lwrist 13.1761
lhand 4.36987 108.501
lfingers 7.12502
lthumb 29.7688 -80.8722
rfemur -122.648 -30.3944 32.8934
rtibia 105.147
rfoot -29.4839 -11.7395
rtoes -21.6315
lfemur -76.0389 34.7183 -3.25479
ltibia 40.6426
lfoot -11.1579 23.4532
ltoes -18.081
1210
root -8.90891 11.9755 -5.17676 111.75 80.1066 -295.346
lowerback 41.7844 -0.734667 3.38527
upperback 17.0556 2.34085 -4.80112
thorax -0.677774 2.44872 -7.68143
lowerneck 2.09489 0.666689 5.80429
upperneck -19.6752 -0.138669 -11.7118
head -6.2392 0.732568 -4.79138
rclavicle -3.18055e-015 3.97569e-015
rhumerus 57.613 -0.963287 -38.7775
rradius 32.1352
rwrist 25.872
rhand -61.0673 3.14741
rfingers 7.12502
rthumb -33.1673 -23.8173
lclavicle -3.18055e-015 3.97569e-015
lhumerus 64.6774 15.1394 76.0488
lradius 71.0131
lwrist 14.296
lhand 4.32365 108.844
lfingers 7.12502
lthumb 29.7246 -81.2073
rfemur -123.179 -31.2131 32.0617
rtibia 104.681
rfoot -28.1338 -10.6355
rtoes -22.7243
lfemur -76.8399 34.9208 -3.65035
ltibia 41.5908
lfoot -7.89095 22.0764
ltoes -22.6645
1211
root -8.95296 11.9058 -5.52659 107.034 80.3702 -300.192
lowerback 42.0765 -0.56114 2.71685
upperback 16.9577 2.28082 -4.87443
thorax -0.891354 2.36727 -7.40189
lowerneck 2.12539 0.76082 5.98696
upperneck -20.2215 0.0883428 -11.0714
head -6.40213 0.792675 -4.64211
rclavicle 4.45278e-014 -5.56597e-014
rhumerus 56.757 -2.22665 -41.5033
rradius 34.7171
rwrist 23.3034
rhand -60.1807 9.43915
rfingers 7.12502
rthumb -32.3238 -17.7013
lclavicle 4.45278e-014 -5.56597e-014
lhumerus 64.6878 14.0088 77.4331
lradius 71.0319
lwrist 14.9181
lhand 4.49802 108.877
lfingers 7.12502
lthumb 29.8911 -81.2703
rfemur -123.565 -31.7695 31.0254
rtibia 103.972
rfoot -26.3853 -9.88397
rtoes -23.4888
lfemur -78.0044 35.6631 -4.07534
ltibia 43.4388
lfoot -1.43767 17.798
ltoes -28.6332
1212
root -8.98968 11.8208 -5.88011 101.624 80.445 -305.365
lowerback 42.7274 -0.568686 1.81933
upperback 16.9079 1.95062 -5.10933
thorax -1.18082 2.1712 -7.09021
lowerneck 1.84763 1.0057 5.76471
upperneck -20.5711 0.546546 -10.2123
head -6.43493 0.968732 -4.35238
rclavicle 1.31993e-013 1.01778e-013
rhumerus 56.351 -2.1209 -41.9345
rradius 37.1929
rwrist 15.9441
rhand -58.9638 17.0696
rfingers 7.12502
rthumb -31.1648 -10.3003
lclavicle 1.31993e-013 1.01778e-013
lhumerus 64.5442 13.127 77.7867
lradius 70.135
lwrist 15.4725
lhand 4.57588 108.495
lfingers 7.12502
lthumb 29.9654 -80.9015
rfemur -123.656 -32.4801 29.6508
rtibia 103.325
rfoot -24.5684 -9.04103
rtoes -23.6973
lfemur -79.9359 36.6824 -4.94974
ltibia 46.1929
lfoot 4.91225 13.8899
ltoes -30.7268
1213
root -9.02346 11.7583 -6.22086 95.4646 80.5387 -310.854
lowerback 43.8251 -0.616386 0.835495
upperback 16.8344 1.54213 -5.38355
thorax -1.60875 1.94589 -6.75706
lowerneck 1.50347 1.30668 5.33371
upperneck -20.7571 1.11214 -9.1575
head -6.40613 1.19222 -3.96224
rclavicle -7.95139e-015 -3.10104e-014
rhumerus 56.4069 -1.81369 -42.1441
rradius 38.851
rwrist 8.58595
rhand -56.3711 26.4395
rfingers 7.12502
rthumb -28.6909 -1.37701
lclavicle -7.95139e-015 -3.10104e-014
lhumerus 64.3537 12.3132 77.3067
lradius 68.1371
lwrist 15.9483
lhand 4.54814 107.749
lfingers 7.12502
lthumb 29.9389 -80.1511
rfemur -122.76 -33.0442 27.982
rtibia 102.522
rfoot -23.0359 -8.46076
rtoes -24.0286
lfemur -82.2289 37.9164 -5.76681
ltibia 49.8223
lfoot 7.43555 13.1984
ltoes -27.8369
1214
root -9.06347 11.6812 -6.55836 89.1908 80.834 -316.767
lowerback 44.2743 -0.557107 0.0665547
upperback 16.8102 1.30909 -5.55357
thorax -1.77618 1.8033 -6.46847
lowerneck 1.24087 1.48687 4.98326
upperneck -20.9805 1.51488 -8.12341
head -6.42281 1.33441 -3.58835
rclavicle 1.03368e-013 -2.78299e-015
rhumerus 56.4961 -1.86566 -41.9509
rradius 39.1286
rwrist 5.42224
rhand -54.9489 28.8437
rfingers 7.12502
rthumb -27.3313 0.805102
lclavicle 1.03368e-013 -2.78299e-015
lhumerus 64.3894 11.1708 76.3557
lradius 65.0566
lwrist 15.9999
lhand 4.30756 106.43
lfingers 7.12502
lthumb 29.7093 -78.7908
rfemur -122.211 -33.3798 26.8373
rtibia 101.725
rfoot -21.7542 -7.84707
rtoes -24.0137
lfemur -85.9203 39.5536 -7.67912
ltibia 54.0576
lfoot 7.19896 12.4719
ltoes -25.458
1215
root -9.10935 11.6103 -6.90004 87.8629 81.3701 -317.773
lowerback 44.6026 -1.02736 0.0701371
upperback 16.8206 0.772456 -5.71341
thorax -1.90666 1.56484 -6.4504
lowerneck 1.04581 1.61829 4.76679
upperneck -21.2099 1.871 -7.06804
head -6.46079 1.44308 -3.23056
rclavicle -7.15625e-014 -4.29375e-014
rhumerus 56.6202 -2.26031 -41.8697
rradius 38.2943
rwrist 7.58253
rhand -55.1389 25.6316
rfingers 7.12502
rthumb -27.513 -2.37826
lclavicle -7.15625e-014 -4.29375e-014
lhumerus 64.8931 9.64203 75.2287
lradius 60.6654
lwrist 14.8812
lhand 3.60729 103.802
lfingers 7.12502
lthumb 29.0407 -76.0449
rfemur -121.698 -34.5217 25.9798
rtibia 100.811
rfoot -20.6011 -7.09505
rtoes -23.8998
lfemur -90.3858 40.1479 -10.2069
ltibia 58.429
lfoot 6.83525 10.4976
ltoes -27.8941
1216
root -9.15419 11.5671 -7.24049 89.0572 81.9064 -316.543
lowerback 44.4576 -1.73502 0.505418
upperback 16.8803 0.117201 -6.00788
thorax -1.88874 1.30032 -6.74557
lowerneck 0.914956 1.61923 4.72573
upperneck -21.4947 2.07305 -5.96145
head -6.54012 1.45926 -2.88144
rclavicle -9.54166e-014 -4.29375e-014
rhumerus 56.5706 -2.94065 -41.7017
rradius 37.2498
rwrist 11.3729
rhand -55.1684 19.1284
rfingers 7.12502
rthumb -27.5412 -8.877
lclavicle -9.54166e-014 -4.29375e-014
lhumerus 65.8056 7.70637 73.5192
lradius 54.9925
lwrist 12.8753
lhand 2.13041 99.8157
lfingers 7.12502
lthumb 27.6293 -71.8245
rfemur -121.275 -35.8661 25.2812
rtibia 99.6472
rfoot -19.4202 -6.30889
rtoes -23.1889
lfemur -94.911 39.9137 -12.5515
ltibia 62.5137
lfoot 6.181 8.96859
ltoes -28.8621
1217
root -9.20683 11.5212 -7.55026 89.1706 82.2578 -317.229
lowerback 43.1535 -2.08228 0.718876
upperback 16.9669 -0.260562 -6.45914
thorax -1.51783 1.14554 -7.1884
lowerneck 0.317773 1.57169 5.23514
upperneck -21.3974 2.187 -5.12378
head -6.41152 1.40445 -2.69132
rclavicle -6.2816e-014 -2.8625e-014
rhumerus 56.2336 -3.7146 -41.2414
rradius 35.9908
rwrist 14.1086
rhand -54.7427 13.5109
rfingers 7.12502
rthumb -27.134 -14.5587
lclavicle -6.2816e-014 -2.8625e-014
lhumerus 67.3823 5.34001 71.8243
lradius 48.1209
lwrist 10.2559
lhand 0.600082 94.4514
lfingers 7.12502
lthumb 26.165 -66.2345
rfemur -121.45 -36.4285 24.4988
rtibia 98.3408
rfoot -18.3428 -5.89909
rtoes -22.2589
lfemur -99.6377 39.7434 -14.9243
ltibia 65.939
lfoot 5.33817 8.61539
ltoes -28.0469
